<?xml version="1.0" standalone="no"?>
<!DOCTYPE svg PUBLIC "-//W3C//DTD SVG 20010904//EN"
 "http://www.w3.org/TR/2001/REC-SVG-20010904/DTD/svg10.dtd">
<svg version="1.0" xmlns="http://www.w3.org/2000/svg"
 width="512.000000pt" height="512.000000pt" viewBox="0 0 512.000000 512.000000"
 preserveAspectRatio="xMidYMid meet">
<metadata>
Created by potrace 1.14, written by Peter Selinger 2001-2017
</metadata>
<g transform="translate(0.000000,512.000000) scale(0.100000,-0.100000)"
fill="#000000" stroke="none">
<path d="M0 2560 l0 -2560 2560 0 2560 0 0 2560 0 2560 -2560 0 -2560 0 0
-2560z m2750 2129 c484 -44 935 -248 1286 -583 186 -176 319 -358 438 -597
375 -753 272 -1656 -265 -2311 -303 -370 -750 -638 -1222 -733 -725 -145
-1468 88 -1973 619 -511 536 -709 1295 -523 2013 130 507 446 951 886 1245
126 85 361 199 508 247 286 93 575 127 865 100z"/>
<path d="M2345 4249 c-100 -13 -296 -63 -390 -100 -118 -45 -277 -131 -385
-207 -121 -85 -306 -270 -393 -392 -126 -178 -240 -439 -282 -645 -9 -44 -18
-90 -21 -102 l-4 -23 428 0 429 0 27 74 c44 121 110 222 206 316 130 129 275
203 455 235 110 19 180 19 288 0 307 -53 557 -262 663 -551 l27 -74 429 0 428
0 -4 23 c-3 12 -12 58 -21 102 -42 207 -156 467 -282 645 -88 122 -272 307
-393 392 -188 134 -439 242 -670 289 -111 23 -422 34 -535 18z"/>
<path d="M2435 2960 c-270 -88 -379 -409 -218 -640 103 -146 291 -213 460
-162 173 53 288 198 301 379 12 176 -100 349 -268 414 -79 31 -197 35 -275 9z"/>
<path d="M874 2318 c3 -13 12 -59 21 -103 42 -207 156 -467 282 -645 88 -123
273 -307 393 -392 236 -167 513 -273 804 -309 129 -16 380 -6 506 20 230 46
481 155 670 289 121 85 306 270 392 392 152 214 251 456 302 738 l6 32 -429 0
-428 0 -23 -62 c-112 -315 -379 -528 -716 -570 -382 -48 -765 189 -900 558
l-27 74 -429 0 -428 0 4 -22z"/>
</g>
</svg>
